<svg width="130" height="125" viewBox="0 0 130 125" fill="none" xmlns="http://www.w3.org/2000/svg">
<rect width="130" height="125" fill="#E457E7"/>
<line x1="13.7969" y1="29.4775" x2="13.7969" y2="112.287" stroke="white"/>
<line x1="33.7827" y1="10.938" x2="33.7827" y2="112.287" stroke="white"/>
<line x1="27.1208" y1="17.1179" x2="27.1208" y2="112.287" stroke="white"/>
<line x1="20.4588" y1="23.2977" x2="20.4588" y2="112.287" stroke="white"/>
<line x1="114.922" y1="11.4726" x2="33.2876" y2="11.4726" stroke="white"/>
<line x1="95.4608" y1="29.9775" x2="13.2969" y2="29.9775" stroke="white"/>
<line x1="102.123" y1="23.7977" x2="19.9588" y2="23.7977" stroke="white"/>
<line x1="108.341" y1="17.6179" x2="26.6208" y2="17.6179" stroke="white"/>
<line x1="95.0726" y1="30.3015" x2="95.0726" y2="112.287" stroke="white"/>
<line y1="-0.5" x2="101.315" y2="-0.5" transform="matrix(0.0042383 0.999991 -0.999989 0.00477496 114.129 10.9726)" stroke="white"/>
<line y1="-0.5" x2="95.1705" y2="-0.5" transform="matrix(-0.00466668 0.999989 -0.999992 -0.00401569 108.341 17.1179)" stroke="white"/>
<line x1="101.734" y1="24.1216" x2="101.734" y2="112.287" stroke="white"/>
<line y1="-0.5" x2="101.351" y2="-0.5" transform="matrix(0.00423274 0.999991 -0.999993 0.00364228 54.1568 10.938)" stroke="white"/>
<line x1="75.0867" y1="10.938" x2="75.0867" y2="112.287" stroke="white"/>
<line y1="-0.5" x2="101.351" y2="-0.5" transform="matrix(-0.00423274 0.999991 -0.999993 -0.00364228 68.3689 10.938)" stroke="white"/>
<line x1="61.7629" y1="10.938" x2="61.7629" y2="112.287" stroke="white"/>
<rect x="88.4106" y="40.2772" width="32.3097" height="9.29971" fill="white" stroke="#EEF2F6"/>
<rect x="88.8547" y="56.7567" width="32.3097" height="9.29971" fill="white" stroke="#EEF2F6"/>
<rect x="88.8547" y="73.2363" width="32.3097" height="9.29971" fill="white" stroke="#EEF2F6"/>
<rect x="88.4106" y="89.7158" width="32.3097" height="9.29971" fill="white" stroke="#EEF2F6"/>
<rect x="8.42561" y="40.7632" width="32.3097" height="9.29971" fill="white" stroke="#EEF2F6"/>
<rect x="8.86977" y="57.2427" width="32.3097" height="9.29971" fill="white" stroke="#EEF2F6"/>
<rect x="8.86977" y="73.7223" width="32.3097" height="9.29971" fill="white" stroke="#EEF2F6"/>
<rect x="8.42561" y="90.2018" width="32.3097" height="9.29971" fill="white" stroke="#EEF2F6"/>
<rect x="66.5924" y="15.4699" width="3.96281" height="4.20623" fill="#4B6973"/>
<rect x="59.4864" y="21.6497" width="3.96281" height="4.20623" fill="#4B6973"/>
<rect x="72.8102" y="9.29007" width="3.96281" height="4.20623" fill="#4B6973"/>
<rect x="52.3803" y="27.8295" width="3.96281" height="4.20623" fill="#4B6973"/>
</svg>
